ISO-10303-21;
HEADER;

FILE_DESCRIPTION(
/* description */ ('STEP AP242 Edition 2',
'CAx-IF Rec.Pracs.---Representation and Presentation of Product Manufa
cturing Information (PMI)---4.0---2014-10-13',
'CAx-IF Rec.Pracs.---3D Tessellated Geometry---0.4---2014-09-14','2;1',
'CAx-IF Rec.Pracs.---User Defined Attributes---1.5---2016-08-15'),
/* implementation_level */ '2;1');

FILE_NAME(
/* name */ 'SCADASentry-DINClip',
/* time_stamp */ '2026-08-29T19:11:12Z',
/* author */ (''),
/* organization */ (''),
/* authorisation */ '  ');

FILE_SCHEMA (('AP242_MANAGED_MODEL_BASED_3D_ENGINEERING_MIM_LF { 1 0 10303 442 3 1 4 }'));
ENDSEC;

DATA;
#10=CONTEXT_DEPENDENT_SHAPE_REPRESENTATION(#12,#1060);
#11=NEXT_ASSEMBLY_USAGE_OCCURRENCE('NAUO1','DINClip','DINClip',#1061,#1062,
'');
#12=(
REPRESENTATION_RELATIONSHIP(' ',' ',#599,#598)
REPRESENTATION_RELATIONSHIP_WITH_TRANSFORMATION(#13)
SHAPE_REPRESENTATION_RELATIONSHIP()
);
#13=ITEM_DEFINED_TRANSFORMATION(' ',' ',#600,#664);
#14=SHAPE_REPRESENTATION_RELATIONSHIP('','',#599,#15);
#15=ADVANCED_BREP_SHAPE_REPRESENTATION('',(#595),#1052);
#16=CONICAL_SURFACE('',#657,0.00125,0.0872664625997164);
#17=(
BOUNDED_SURFACE()
B_SPLINE_SURFACE(3,2,((#1004,#1005,#1006),(#1007,#1008,#1009),(#1010,#1011,
#1012),(#1013,#1014,#1015),(#1016,#1017,#1018)),.UNSPECIFIED.,.F.,.F.,.F.)
B_SPLINE_SURFACE_WITH_KNOTS((4,1,4),(3,3),(0.499999999999999,0.610732498837594,
0.721464997675189),(0.,1.),.UNSPECIFIED.)
GEOMETRIC_REPRESENTATION_ITEM()
RATIONAL_B_SPLINE_SURFACE(((1.,0.70710678118655,1.),(1.,0.752679712363489,
1.),(1.,0.834664594178702,1.),(1.,0.891424948626093,1.),(1.,0.913821488017853,
1.)))
REPRESENTATION_ITEM('')
SURFACE()
);
#18=(
BOUNDED_SURFACE()
B_SPLINE_SURFACE(3,2,((#1022,#1023,#1024),(#1025,#1026,#1027),(#1028,#1029,
#1030),(#1031,#1032,#1033),(#1034,#1035,#1036)),.UNSPECIFIED.,.F.,.F.,.F.)
B_SPLINE_SURFACE_WITH_KNOTS((4,1,4),(3,3),(0.278535002324817,0.38926750116241,
0.500000000000003),(0.,1.),.UNSPECIFIED.)
GEOMETRIC_REPRESENTATION_ITEM()
RATIONAL_B_SPLINE_SURFACE(((1.,0.913821488017853,1.),(1.,0.89142494862528,
1.),(1.,0.834664594180977,1.),(1.,0.752679712359744,1.),(1.,0.707106781186551,
1.)))
REPRESENTATION_ITEM('')
SURFACE()
);
#19=B_SPLINE_CURVE_WITH_KNOTS('',3,(#985,#986,#987,#988),.UNSPECIFIED.,
 .F.,.F.,(4,4),(0.,0.000337338414328409),.UNSPECIFIED.);
#20=B_SPLINE_CURVE_WITH_KNOTS('',3,(#993,#994,#995,#996),.UNSPECIFIED.,
 .F.,.F.,(4,4),(0.,0.000337307603987932),.UNSPECIFIED.);
#21=CYLINDRICAL_SURFACE('',#621,0.0005);
#22=CYLINDRICAL_SURFACE('',#623,0.0005);
#23=CYLINDRICAL_SURFACE('',#626,0.0005);
#24=CYLINDRICAL_SURFACE('',#629,0.0005);
#25=CYLINDRICAL_SURFACE('',#631,0.0004);
#26=CYLINDRICAL_SURFACE('',#634,0.0004);
#27=CYLINDRICAL_SURFACE('',#647,0.0009);
#28=CYLINDRICAL_SURFACE('',#649,0.0009);
#29=CYLINDRICAL_SURFACE('',#652,0.0004);
#30=CYLINDRICAL_SURFACE('',#654,0.0004);
#31=CYLINDRICAL_SURFACE('',#660,0.001);
#32=CYLINDRICAL_SURFACE('',#661,0.001);
#33=CYLINDRICAL_SURFACE('',#662,0.001);
#34=CYLINDRICAL_SURFACE('',#663,0.001);
#35=CIRCLE('',#603,0.0004);
#36=CIRCLE('',#604,0.0004);
#37=CIRCLE('',#605,0.0005);
#38=CIRCLE('',#606,0.0005);
#39=CIRCLE('',#608,0.00125);
#40=CIRCLE('',#609,0.001);
#41=CIRCLE('',#610,0.001);
#42=CIRCLE('',#611,0.001);
#43=CIRCLE('',#612,0.001);
#44=CIRCLE('',#622,0.0005);
#45=CIRCLE('',#624,0.0005);
#46=CIRCLE('',#625,0.0005);
#47=CIRCLE('',#627,0.0005);
#48=CIRCLE('',#628,0.0005);
#49=CIRCLE('',#630,0.0005);
#50=CIRCLE('',#632,0.0004);
#51=CIRCLE('',#633,0.0004);
#52=CIRCLE('',#635,0.0004);
#53=CIRCLE('',#638,0.001);
#54=CIRCLE('',#639,0.001);
#55=CIRCLE('',#640,0.001);
#56=CIRCLE('',#641,0.001);
#57=CIRCLE('',#642,0.00140310516117037);
#58=CIRCLE('',#653,0.0004);
#59=CIRCLE('',#655,0.0004);
#60=CIRCLE('',#656,0.0004);
#61=ELLIPSE('',#602,0.000913587988969623,0.0009);
#62=ELLIPSE('',#616,0.00756566008751252,0.0013);
#63=ELLIPSE('',#619,0.00756566008751253,0.0013);
#64=ELLIPSE('',#645,0.000913587988969623,0.0009);
#65=ELLIPSE('',#646,0.000913587988969623,0.0009);
#66=ELLIPSE('',#648,0.00750727730670581,0.0009);
#67=ELLIPSE('',#650,0.000913587988969623,0.0009);
#68=ELLIPSE('',#651,0.00750727730670581,0.0009);
#69=ORIENTED_EDGE('',*,*,#237,.F.);
#70=ORIENTED_EDGE('',*,*,#238,.T.);
#71=ORIENTED_EDGE('',*,*,#239,.T.);
#72=ORIENTED_EDGE('',*,*,#240,.F.);
#73=ORIENTED_EDGE('',*,*,#241,.F.);
#74=ORIENTED_EDGE('',*,*,#242,.T.);
#75=ORIENTED_EDGE('',*,*,#243,.T.);
#76=ORIENTED_EDGE('',*,*,#244,.F.);
#77=ORIENTED_EDGE('',*,*,#245,.F.);
#78=ORIENTED_EDGE('',*,*,#246,.F.);
#79=ORIENTED_EDGE('',*,*,#247,.T.);
#80=ORIENTED_EDGE('',*,*,#248,.F.);
#81=ORIENTED_EDGE('',*,*,#249,.T.);
#82=ORIENTED_EDGE('',*,*,#250,.T.);
#83=ORIENTED_EDGE('',*,*,#251,.T.);
#84=ORIENTED_EDGE('',*,*,#252,.T.);
#85=ORIENTED_EDGE('',*,*,#253,.T.);
#86=ORIENTED_EDGE('',*,*,#254,.T.);
#87=ORIENTED_EDGE('',*,*,#255,.T.);
#88=ORIENTED_EDGE('',*,*,#237,.T.);
#89=ORIENTED_EDGE('',*,*,#256,.T.);
#90=ORIENTED_EDGE('',*,*,#257,.F.);
#91=ORIENTED_EDGE('',*,*,#258,.T.);
#92=ORIENTED_EDGE('',*,*,#247,.F.);
#93=ORIENTED_EDGE('',*,*,#259,.T.);
#94=ORIENTED_EDGE('',*,*,#260,.T.);
#95=ORIENTED_EDGE('',*,*,#261,.T.);
#96=ORIENTED_EDGE('',*,*,#262,.T.);
#97=ORIENTED_EDGE('',*,*,#245,.T.);
#98=ORIENTED_EDGE('',*,*,#263,.T.);
#99=ORIENTED_EDGE('',*,*,#264,.F.);
#100=ORIENTED_EDGE('',*,*,#243,.F.);
#101=ORIENTED_EDGE('',*,*,#265,.T.);
#102=ORIENTED_EDGE('',*,*,#266,.T.);
#103=ORIENTED_EDGE('',*,*,#267,.T.);
#104=ORIENTED_EDGE('',*,*,#268,.T.);
#105=ORIENTED_EDGE('',*,*,#269,.F.);
#106=ORIENTED_EDGE('',*,*,#270,.T.);
#107=ORIENTED_EDGE('',*,*,#271,.T.);
#108=ORIENTED_EDGE('',*,*,#272,.T.);
#109=ORIENTED_EDGE('',*,*,#273,.T.);
#110=ORIENTED_EDGE('',*,*,#274,.T.);
#111=ORIENTED_EDGE('',*,*,#275,.T.);
#112=ORIENTED_EDGE('',*,*,#276,.F.);
#113=ORIENTED_EDGE('',*,*,#277,.T.);
#114=ORIENTED_EDGE('',*,*,#278,.T.);
#115=ORIENTED_EDGE('',*,*,#279,.T.);
#116=ORIENTED_EDGE('',*,*,#280,.T.);
#117=ORIENTED_EDGE('',*,*,#281,.F.);
#118=ORIENTED_EDGE('',*,*,#259,.F.);
#119=ORIENTED_EDGE('',*,*,#246,.T.);
#120=ORIENTED_EDGE('',*,*,#262,.F.);
#121=ORIENTED_EDGE('',*,*,#282,.F.);
#122=ORIENTED_EDGE('',*,*,#280,.F.);
#123=ORIENTED_EDGE('',*,*,#283,.T.);
#124=ORIENTED_EDGE('',*,*,#272,.F.);
#125=ORIENTED_EDGE('',*,*,#284,.F.);
#126=ORIENTED_EDGE('',*,*,#270,.F.);
#127=ORIENTED_EDGE('',*,*,#285,.T.);
#128=ORIENTED_EDGE('',*,*,#258,.F.);
#129=ORIENTED_EDGE('',*,*,#286,.F.);
#130=ORIENTED_EDGE('',*,*,#256,.F.);
#131=ORIENTED_EDGE('',*,*,#248,.T.);
#132=ORIENTED_EDGE('',*,*,#261,.F.);
#133=ORIENTED_EDGE('',*,*,#287,.F.);
#134=ORIENTED_EDGE('',*,*,#275,.F.);
#135=ORIENTED_EDGE('',*,*,#288,.T.);
#136=ORIENTED_EDGE('',*,*,#278,.F.);
#137=ORIENTED_EDGE('',*,*,#289,.F.);
#138=ORIENTED_EDGE('',*,*,#263,.F.);
#139=ORIENTED_EDGE('',*,*,#244,.T.);
#140=ORIENTED_EDGE('',*,*,#268,.F.);
#141=ORIENTED_EDGE('',*,*,#290,.F.);
#142=ORIENTED_EDGE('',*,*,#291,.T.);
#143=ORIENTED_EDGE('',*,*,#241,.T.);
#144=ORIENTED_EDGE('',*,*,#292,.T.);
#145=ORIENTED_EDGE('',*,*,#293,.F.);
#146=ORIENTED_EDGE('',*,*,#294,.T.);
#147=ORIENTED_EDGE('',*,*,#295,.T.);
#148=ORIENTED_EDGE('',*,*,#296,.F.);
#149=ORIENTED_EDGE('',*,*,#297,.T.);
#150=ORIENTED_EDGE('',*,*,#298,.F.);
#151=ORIENTED_EDGE('',*,*,#299,.T.);
#152=ORIENTED_EDGE('',*,*,#239,.F.);
#153=ORIENTED_EDGE('',*,*,#300,.T.);
#154=ORIENTED_EDGE('',*,*,#301,.T.);
#155=ORIENTED_EDGE('',*,*,#302,.F.);
#156=ORIENTED_EDGE('',*,*,#303,.F.);
#157=ORIENTED_EDGE('',*,*,#304,.T.);
#158=ORIENTED_EDGE('',*,*,#305,.T.);
#159=ORIENTED_EDGE('',*,*,#267,.F.);
#160=ORIENTED_EDGE('',*,*,#306,.T.);
#161=ORIENTED_EDGE('',*,*,#307,.T.);
#162=ORIENTED_EDGE('',*,*,#298,.T.);
#163=ORIENTED_EDGE('',*,*,#308,.T.);
#164=ORIENTED_EDGE('',*,*,#309,.T.);
#165=ORIENTED_EDGE('',*,*,#276,.T.);
#166=ORIENTED_EDGE('',*,*,#289,.T.);
#167=ORIENTED_EDGE('',*,*,#281,.T.);
#168=ORIENTED_EDGE('',*,*,#284,.T.);
#169=ORIENTED_EDGE('',*,*,#271,.F.);
#170=ORIENTED_EDGE('',*,*,#286,.T.);
#171=ORIENTED_EDGE('',*,*,#257,.T.);
#172=ORIENTED_EDGE('',*,*,#287,.T.);
#173=ORIENTED_EDGE('',*,*,#260,.F.);
#174=ORIENTED_EDGE('',*,*,#282,.T.);
#175=ORIENTED_EDGE('',*,*,#264,.T.);
#176=ORIENTED_EDGE('',*,*,#290,.T.);
#177=ORIENTED_EDGE('',*,*,#292,.F.);
#178=ORIENTED_EDGE('',*,*,#240,.T.);
#179=ORIENTED_EDGE('',*,*,#299,.F.);
#180=ORIENTED_EDGE('',*,*,#307,.F.);
#181=ORIENTED_EDGE('',*,*,#310,.T.);
#182=ORIENTED_EDGE('',*,*,#297,.F.);
#183=ORIENTED_EDGE('',*,*,#311,.T.);
#184=ORIENTED_EDGE('',*,*,#305,.F.);
#185=ORIENTED_EDGE('',*,*,#312,.T.);
#186=ORIENTED_EDGE('',*,*,#308,.F.);
#187=ORIENTED_EDGE('',*,*,#242,.F.);
#188=ORIENTED_EDGE('',*,*,#291,.F.);
#189=ORIENTED_EDGE('',*,*,#313,.F.);
#190=ORIENTED_EDGE('',*,*,#265,.F.);
#191=ORIENTED_EDGE('',*,*,#313,.T.);
#192=ORIENTED_EDGE('',*,*,#310,.F.);
#193=ORIENTED_EDGE('',*,*,#306,.F.);
#194=ORIENTED_EDGE('',*,*,#266,.F.);
#195=ORIENTED_EDGE('',*,*,#314,.F.);
#196=ORIENTED_EDGE('',*,*,#273,.F.);
#197=ORIENTED_EDGE('',*,*,#315,.F.);
#198=ORIENTED_EDGE('',*,*,#304,.F.);
#199=ORIENTED_EDGE('',*,*,#309,.F.);
#200=ORIENTED_EDGE('',*,*,#312,.F.);
#201=ORIENTED_EDGE('',*,*,#315,.T.);
#202=ORIENTED_EDGE('',*,*,#277,.F.);
#203=ORIENTED_EDGE('',*,*,#302,.T.);
#204=ORIENTED_EDGE('',*,*,#249,.F.);
#205=ORIENTED_EDGE('',*,*,#296,.T.);
#206=ORIENTED_EDGE('',*,*,#316,.T.);
#207=ORIENTED_EDGE('',*,*,#250,.F.);
#208=ORIENTED_EDGE('',*,*,#285,.F.);
#209=ORIENTED_EDGE('',*,*,#269,.T.);
#210=ORIENTED_EDGE('',*,*,#283,.F.);
#211=ORIENTED_EDGE('',*,*,#279,.F.);
#212=ORIENTED_EDGE('',*,*,#288,.F.);
#213=ORIENTED_EDGE('',*,*,#274,.F.);
#214=ORIENTED_EDGE('',*,*,#314,.T.);
#215=ORIENTED_EDGE('',*,*,#303,.T.);
#216=ORIENTED_EDGE('',*,*,#311,.F.);
#217=ORIENTED_EDGE('',*,*,#253,.F.);
#218=ORIENTED_EDGE('',*,*,#317,.T.);
#219=ORIENTED_EDGE('',*,*,#293,.T.);
#220=ORIENTED_EDGE('',*,*,#318,.T.);
#221=ORIENTED_EDGE('',*,*,#316,.F.);
#222=ORIENTED_EDGE('',*,*,#295,.F.);
#223=ORIENTED_EDGE('',*,*,#319,.F.);
#224=ORIENTED_EDGE('',*,*,#251,.F.);
#225=ORIENTED_EDGE('',*,*,#294,.F.);
#226=ORIENTED_EDGE('',*,*,#317,.F.);
#227=ORIENTED_EDGE('',*,*,#252,.F.);
#228=ORIENTED_EDGE('',*,*,#319,.T.);
#229=ORIENTED_EDGE('',*,*,#320,.F.);
#230=ORIENTED_EDGE('',*,*,#300,.F.);
#231=ORIENTED_EDGE('',*,*,#238,.F.);
#232=ORIENTED_EDGE('',*,*,#255,.F.);
#233=ORIENTED_EDGE('',*,*,#301,.F.);
#234=ORIENTED_EDGE('',*,*,#320,.T.);
#235=ORIENTED_EDGE('',*,*,#254,.F.);
#236=ORIENTED_EDGE('',*,*,#318,.F.);
#237=EDGE_CURVE('',#321,#322,#377,.T.);
#238=EDGE_CURVE('',#321,#323,#378,.F.);
#239=EDGE_CURVE('',#323,#324,#379,.T.);
#240=EDGE_CURVE('',#325,#324,#61,.F.);
#241=EDGE_CURVE('',#326,#325,#380,.T.);
#242=EDGE_CURVE('',#326,#327,#35,.F.);
#243=EDGE_CURVE('',#327,#328,#381,.T.);
#244=EDGE_CURVE('',#329,#328,#36,.T.);
#245=EDGE_CURVE('',#330,#329,#382,.T.);
#246=EDGE_CURVE('',#331,#330,#37,.T.);
#247=EDGE_CURVE('',#331,#332,#383,.F.);
#248=EDGE_CURVE('',#322,#332,#38,.T.);
#249=EDGE_CURVE('',#333,#333,#39,.F.);
#250=EDGE_CURVE('',#334,#335,#384,.T.);
#251=EDGE_CURVE('',#335,#336,#40,.F.);
#252=EDGE_CURVE('',#336,#337,#41,.T.);
#253=EDGE_CURVE('',#337,#338,#385,.T.);
#254=EDGE_CURVE('',#338,#339,#42,.T.);
#255=EDGE_CURVE('',#339,#321,#43,.F.);
#256=EDGE_CURVE('',#322,#340,#386,.T.);
#257=EDGE_CURVE('',#341,#340,#387,.T.);
#258=EDGE_CURVE('',#341,#334,#388,.F.);
#259=EDGE_CURVE('',#331,#342,#389,.T.);
#260=EDGE_CURVE('',#342,#343,#390,.F.);
#261=EDGE_CURVE('',#343,#332,#391,.F.);
#262=EDGE_CURVE('',#344,#330,#392,.F.);
#263=EDGE_CURVE('',#329,#345,#393,.T.);
#264=EDGE_CURVE('',#344,#345,#394,.T.);
#265=EDGE_CURVE('',#327,#346,#395,.T.);
#266=EDGE_CURVE('',#346,#347,#62,.T.);
#267=EDGE_CURVE('',#347,#348,#396,.T.);
#268=EDGE_CURVE('',#348,#328,#397,.F.);
#269=EDGE_CURVE('',#349,#350,#398,.T.);
#270=EDGE_CURVE('',#349,#351,#399,.T.);
#271=EDGE_CURVE('',#351,#352,#400,.T.);
#272=EDGE_CURVE('',#352,#350,#401,.F.);
#273=EDGE_CURVE('',#353,#354,#402,.F.);
#274=EDGE_CURVE('',#354,#355,#403,.T.);
#275=EDGE_CURVE('',#355,#356,#404,.T.);
#276=EDGE_CURVE('',#357,#356,#405,.T.);
#277=EDGE_CURVE('',#357,#353,#63,.F.);
#278=EDGE_CURVE('',#358,#359,#406,.F.);
#279=EDGE_CURVE('',#359,#360,#407,.T.);
#280=EDGE_CURVE('',#360,#361,#408,.T.);
#281=EDGE_CURVE('',#358,#361,#409,.T.);
#282=EDGE_CURVE('',#342,#344,#44,.T.);
#283=EDGE_CURVE('',#360,#350,#45,.T.);
#284=EDGE_CURVE('',#361,#352,#46,.T.);
#285=EDGE_CURVE('',#349,#334,#47,.T.);
#286=EDGE_CURVE('',#351,#341,#48,.T.);
#287=EDGE_CURVE('',#340,#343,#49,.T.);
#288=EDGE_CURVE('',#355,#359,#50,.T.);
#289=EDGE_CURVE('',#356,#358,#51,.T.);
#290=EDGE_CURVE('',#345,#348,#52,.T.);
#291=EDGE_CURVE('',#362,#326,#410,.F.);
#292=EDGE_CURVE('',#325,#362,#411,.T.);
#293=EDGE_CURVE('',#363,#364,#412,.T.);
#294=EDGE_CURVE('',#363,#365,#53,.T.);
#295=EDGE_CURVE('',#365,#366,#54,.F.);
#296=EDGE_CURVE('',#367,#366,#413,.T.);
#297=EDGE_CURVE('',#367,#368,#414,.F.);
#298=EDGE_CURVE('',#369,#368,#415,.T.);
#299=EDGE_CURVE('',#369,#324,#416,.F.);
#300=EDGE_CURVE('',#323,#370,#55,.F.);
#301=EDGE_CURVE('',#370,#364,#56,.T.);
#302=EDGE_CURVE('',#371,#371,#57,.T.);
#303=EDGE_CURVE('',#372,#373,#417,.T.);
#304=EDGE_CURVE('',#372,#374,#418,.T.);
#305=EDGE_CURVE('',#374,#373,#419,.T.);
#306=EDGE_CURVE('',#347,#375,#19,.T.);
#307=EDGE_CURVE('',#375,#369,#64,.F.);
#308=EDGE_CURVE('',#368,#376,#65,.F.);
#309=EDGE_CURVE('',#376,#357,#20,.T.);
#310=EDGE_CURVE('',#375,#362,#66,.T.);
#311=EDGE_CURVE('',#367,#373,#67,.F.);
#312=EDGE_CURVE('',#374,#376,#68,.F.);
#313=EDGE_CURVE('',#346,#362,#58,.T.);
#314=EDGE_CURVE('',#354,#372,#59,.F.);
#315=EDGE_CURVE('',#374,#353,#60,.T.);
#316=EDGE_CURVE('',#366,#335,#420,.T.);
#317=EDGE_CURVE('',#337,#363,#421,.F.);
#318=EDGE_CURVE('',#364,#338,#422,.T.);
#319=EDGE_CURVE('',#336,#365,#423,.F.);
#320=EDGE_CURVE('',#370,#339,#424,.T.);
#321=VERTEX_POINT('',#846);
#322=VERTEX_POINT('',#847);
#323=VERTEX_POINT('',#849);
#324=VERTEX_POINT('',#851);
#325=VERTEX_POINT('',#853);
#326=VERTEX_POINT('',#855);
#327=VERTEX_POINT('',#857);
#328=VERTEX_POINT('',#859);
#329=VERTEX_POINT('',#861);
#330=VERTEX_POINT('',#863);
#331=VERTEX_POINT('',#865);
#332=VERTEX_POINT('',#867);
#333=VERTEX_POINT('',#871);
#334=VERTEX_POINT('',#873);
#335=VERTEX_POINT('',#874);
#336=VERTEX_POINT('',#876);
#337=VERTEX_POINT('',#878);
#338=VERTEX_POINT('',#880);
#339=VERTEX_POINT('',#882);
#340=VERTEX_POINT('',#885);
#341=VERTEX_POINT('',#887);
#342=VERTEX_POINT('',#891);
#343=VERTEX_POINT('',#893);
#344=VERTEX_POINT('',#897);
#345=VERTEX_POINT('',#899);
#346=VERTEX_POINT('',#903);
#347=VERTEX_POINT('',#905);
#348=VERTEX_POINT('',#907);
#349=VERTEX_POINT('',#911);
#350=VERTEX_POINT('',#912);
#351=VERTEX_POINT('',#914);
#352=VERTEX_POINT('',#916);
#353=VERTEX_POINT('',#920);
#354=VERTEX_POINT('',#921);
#355=VERTEX_POINT('',#923);
#356=VERTEX_POINT('',#925);
#357=VERTEX_POINT('',#927);
#358=VERTEX_POINT('',#931);
#359=VERTEX_POINT('',#932);
#360=VERTEX_POINT('',#934);
#361=VERTEX_POINT('',#936);
#362=VERTEX_POINT('',#955);
#363=VERTEX_POINT('',#959);
#364=VERTEX_POINT('',#960);
#365=VERTEX_POINT('',#962);
#366=VERTEX_POINT('',#964);
#367=VERTEX_POINT('',#966);
#368=VERTEX_POINT('',#968);
#369=VERTEX_POINT('',#970);
#370=VERTEX_POINT('',#973);
#371=VERTEX_POINT('',#976);
#372=VERTEX_POINT('',#979);
#373=VERTEX_POINT('',#980);
#374=VERTEX_POINT('',#982);
#375=VERTEX_POINT('',#989);
#376=VERTEX_POINT('',#992);
#377=LINE('',#845,#425);
#378=LINE('',#848,#426);
#379=LINE('',#850,#427);
#380=LINE('',#854,#428);
#381=LINE('',#858,#429);
#382=LINE('',#862,#430);
#383=LINE('',#866,#431);
#384=LINE('',#872,#432);
#385=LINE('',#879,#433);
#386=LINE('',#884,#434);
#387=LINE('',#886,#435);
#388=LINE('',#888,#436);
#389=LINE('',#890,#437);
#390=LINE('',#892,#438);
#391=LINE('',#894,#439);
#392=LINE('',#896,#440);
#393=LINE('',#898,#441);
#394=LINE('',#900,#442);
#395=LINE('',#902,#443);
#396=LINE('',#906,#444);
#397=LINE('',#908,#445);
#398=LINE('',#910,#446);
#399=LINE('',#913,#447);
#400=LINE('',#915,#448);
#401=LINE('',#917,#449);
#402=LINE('',#919,#450);
#403=LINE('',#922,#451);
#404=LINE('',#924,#452);
#405=LINE('',#926,#453);
#406=LINE('',#930,#454);
#407=LINE('',#933,#455);
#408=LINE('',#935,#456);
#409=LINE('',#937,#457);
#410=LINE('',#954,#458);
#411=LINE('',#956,#459);
#412=LINE('',#958,#460);
#413=LINE('',#965,#461);
#414=LINE('',#967,#462);
#415=LINE('',#969,#463);
#416=LINE('',#971,#464);
#417=LINE('',#978,#465);
#418=LINE('',#981,#466);
#419=LINE('',#983,#467);
#420=LINE('',#1039,#468);
#421=LINE('',#1041,#469);
#422=LINE('',#1042,#470);
#423=LINE('',#1044,#471);
#424=LINE('',#1047,#472);
#425=VECTOR('',#669,1.);
#426=VECTOR('',#670,1.);
#427=VECTOR('',#671,1.);
#428=VECTOR('',#674,1.);
#429=VECTOR('',#677,1.);
#430=VECTOR('',#680,1.);
#431=VECTOR('',#683,1.);
#432=VECTOR('',#690,1.);
#433=VECTOR('',#695,1.);
#434=VECTOR('',#700,1.);
#435=VECTOR('',#701,1.);
#436=VECTOR('',#702,1.);
#437=VECTOR('',#705,1.);
#438=VECTOR('',#706,1.);
#439=VECTOR('',#707,1.);
#440=VECTOR('',#710,1.);
#441=VECTOR('',#711,1.);
#442=VECTOR('',#712,1.);
#443=VECTOR('',#715,1.);
#444=VECTOR('',#718,1.);
#445=VECTOR('',#719,1.);
#446=VECTOR('',#722,1.);
#447=VECTOR('',#723,1.);
#448=VECTOR('',#724,1.);
#449=VECTOR('',#725,1.);
#450=VECTOR('',#728,1.);
#451=VECTOR('',#729,1.);
#452=VECTOR('',#730,1.);
#453=VECTOR('',#731,1.);
#454=VECTOR('',#736,1.);
#455=VECTOR('',#737,1.);
#456=VECTOR('',#738,1.);
#457=VECTOR('',#739,1.);
#458=VECTOR('',#772,1.);
#459=VECTOR('',#773,1.);
#460=VECTOR('',#776,1.);
#461=VECTOR('',#781,1.);
#462=VECTOR('',#782,1.);
#463=VECTOR('',#783,1.);
#464=VECTOR('',#784,1.);
#465=VECTOR('',#793,1.);
#466=VECTOR('',#794,1.);
#467=VECTOR('',#795,1.);
#468=VECTOR('',#826,1.);
#469=VECTOR('',#829,1.);
#470=VECTOR('',#830,1.);
#471=VECTOR('',#833,1.);
#472=VECTOR('',#838,1.);
#473=EDGE_LOOP('',(#69,#70,#71,#72,#73,#74,#75,#76,#77,#78,#79,#80));
#474=EDGE_LOOP('',(#81));
#475=EDGE_LOOP('',(#82,#83,#84,#85,#86,#87,#88,#89,#90,#91));
#476=EDGE_LOOP('',(#92,#93,#94,#95));
#477=EDGE_LOOP('',(#96,#97,#98,#99));
#478=EDGE_LOOP('',(#100,#101,#102,#103,#104));
#479=EDGE_LOOP('',(#105,#106,#107,#108));
#480=EDGE_LOOP('',(#109,#110,#111,#112,#113));
#481=EDGE_LOOP('',(#114,#115,#116,#117));
#482=EDGE_LOOP('',(#118,#119,#120,#121));
#483=EDGE_LOOP('',(#122,#123,#124,#125));
#484=EDGE_LOOP('',(#126,#127,#128,#129));
#485=EDGE_LOOP('',(#130,#131,#132,#133));
#486=EDGE_LOOP('',(#134,#135,#136,#137));
#487=EDGE_LOOP('',(#138,#139,#140,#141));
#488=EDGE_LOOP('',(#142,#143,#144));
#489=EDGE_LOOP('',(#145,#146,#147,#148,#149,#150,#151,#152,#153,#154));
#490=EDGE_LOOP('',(#155));
#491=EDGE_LOOP('',(#156,#157,#158));
#492=EDGE_LOOP('',(#159,#160,#161,#162,#163,#164,#165,#166,#167,#168,#169,
#170,#171,#172,#173,#174,#175,#176));
#493=EDGE_LOOP('',(#177,#178,#179,#180,#181));
#494=EDGE_LOOP('',(#182,#183,#184,#185,#186));
#495=EDGE_LOOP('',(#187,#188,#189,#190));
#496=EDGE_LOOP('',(#191,#192,#193,#194));
#497=EDGE_LOOP('',(#195,#196,#197,#198));
#498=EDGE_LOOP('',(#199,#200,#201,#202));
#499=EDGE_LOOP('',(#203));
#500=EDGE_LOOP('',(#204));
#501=EDGE_LOOP('',(#205,#206,#207,#208,#209,#210,#211,#212,#213,#214,#215,
#216));
#502=EDGE_LOOP('',(#217,#218,#219,#220));
#503=EDGE_LOOP('',(#221,#222,#223,#224));
#504=EDGE_LOOP('',(#225,#226,#227,#228));
#505=EDGE_LOOP('',(#229,#230,#231,#232));
#506=EDGE_LOOP('',(#233,#234,#235,#236));
#507=FACE_BOUND('',#473,.T.);
#508=FACE_BOUND('',#474,.T.);
#509=FACE_BOUND('',#475,.T.);
#510=FACE_BOUND('',#476,.T.);
#511=FACE_BOUND('',#477,.T.);
#512=FACE_BOUND('',#478,.T.);
#513=FACE_BOUND('',#479,.T.);
#514=FACE_BOUND('',#480,.T.);
#515=FACE_BOUND('',#481,.T.);
#516=FACE_BOUND('',#482,.T.);
#517=FACE_BOUND('',#483,.T.);
#518=FACE_BOUND('',#484,.T.);
#519=FACE_BOUND('',#485,.T.);
#520=FACE_BOUND('',#486,.T.);
#521=FACE_BOUND('',#487,.T.);
#522=FACE_BOUND('',#488,.T.);
#523=FACE_BOUND('',#489,.T.);
#524=FACE_BOUND('',#490,.T.);
#525=FACE_BOUND('',#491,.T.);
#526=FACE_BOUND('',#492,.T.);
#527=FACE_BOUND('',#493,.T.);
#528=FACE_BOUND('',#494,.T.);
#529=FACE_BOUND('',#495,.T.);
#530=FACE_BOUND('',#496,.T.);
#531=FACE_BOUND('',#497,.T.);
#532=FACE_BOUND('',#498,.T.);
#533=FACE_BOUND('',#499,.T.);
#534=FACE_BOUND('',#500,.T.);
#535=FACE_BOUND('',#501,.T.);
#536=FACE_BOUND('',#502,.T.);
#537=FACE_BOUND('',#503,.T.);
#538=FACE_BOUND('',#504,.T.);
#539=FACE_BOUND('',#505,.T.);
#540=FACE_BOUND('',#506,.T.);
#541=PLANE('',#601);
#542=PLANE('',#607);
#543=PLANE('',#613);
#544=PLANE('',#614);
#545=PLANE('',#615);
#546=PLANE('',#617);
#547=PLANE('',#618);
#548=PLANE('',#620);
#549=PLANE('',#636);
#550=PLANE('',#637);
#551=PLANE('',#643);
#552=PLANE('',#644);
#553=PLANE('',#658);
#554=PLANE('',#659);
#555=ADVANCED_FACE('',(#507),#541,.F.);
#556=ADVANCED_FACE('',(#508,#509),#542,.T.);
#557=ADVANCED_FACE('',(#510),#543,.F.);
#558=ADVANCED_FACE('',(#511),#544,.T.);
#559=ADVANCED_FACE('',(#512),#545,.F.);
#560=ADVANCED_FACE('',(#513),#546,.F.);
#561=ADVANCED_FACE('',(#514),#547,.T.);
#562=ADVANCED_FACE('',(#515),#548,.T.);
#563=ADVANCED_FACE('',(#516),#21,.T.);
#564=ADVANCED_FACE('',(#517),#22,.T.);
#565=ADVANCED_FACE('',(#518),#23,.T.);
#566=ADVANCED_FACE('',(#519),#24,.T.);
#567=ADVANCED_FACE('',(#520),#25,.T.);
#568=ADVANCED_FACE('',(#521),#26,.T.);
#569=ADVANCED_FACE('',(#522),#549,.F.);
#570=ADVANCED_FACE('',(#523,#524),#550,.T.);
#571=ADVANCED_FACE('',(#525),#551,.T.);
#572=ADVANCED_FACE('',(#526),#552,.T.);
#573=ADVANCED_FACE('',(#527),#27,.F.);
#574=ADVANCED_FACE('',(#528),#28,.F.);
#575=ADVANCED_FACE('',(#529),#29,.T.);
#576=ADVANCED_FACE('',(#530),#17,.T.);
#577=ADVANCED_FACE('',(#531),#30,.T.);
#578=ADVANCED_FACE('',(#532),#18,.T.);
#579=ADVANCED_FACE('',(#533,#534),#16,.F.);
#580=ADVANCED_FACE('',(#535),#553,.F.);
#581=ADVANCED_FACE('',(#536),#554,.T.);
#582=ADVANCED_FACE('',(#537),#31,.F.);
#583=ADVANCED_FACE('',(#538),#32,.T.);
#584=ADVANCED_FACE('',(#539),#33,.F.);
#585=ADVANCED_FACE('',(#540),#34,.T.);
#586=CLOSED_SHELL('',(#555,#556,#557,#558,#559,#560,#561,#562,#563,#564,
#565,#566,#567,#568,#569,#570,#571,#572,#573,#574,#575,#576,#577,#578,#579,
#580,#581,#582,#583,#584,#585));
#587=STYLED_ITEM('',(#588),#595);
#588=PRESENTATION_STYLE_ASSIGNMENT((#589));
#589=SURFACE_STYLE_USAGE(.BOTH.,#590);
#590=SURFACE_SIDE_STYLE('',(#591));
#591=SURFACE_STYLE_FILL_AREA(#592);
#592=FILL_AREA_STYLE('',(#593));
#593=FILL_AREA_STYLE_COLOUR('',#594);
#594=COLOUR_RGB('',0.231372549019608,0.380392156862745,0.705882352941177);
#595=MANIFOLD_SOLID_BREP('DINClip',#586);
#596=SHAPE_DEFINITION_REPRESENTATION(#1058,#598);
#597=SHAPE_DEFINITION_REPRESENTATION(#1059,#599);
#598=SHAPE_REPRESENTATION('DINClip',(#600,#664),#1051);
#599=SHAPE_REPRESENTATION('DINClip',(#600),#1052);
#600=AXIS2_PLACEMENT_3D('',#843,#665,#666);
#601=AXIS2_PLACEMENT_3D('',#844,#667,#668);
#602=AXIS2_PLACEMENT_3D('',#852,#672,#673);
#603=AXIS2_PLACEMENT_3D('',#856,#675,#676);
#604=AXIS2_PLACEMENT_3D('',#860,#678,#679);
#605=AXIS2_PLACEMENT_3D('',#864,#681,#682);
#606=AXIS2_PLACEMENT_3D('',#868,#684,#685);
#607=AXIS2_PLACEMENT_3D('',#869,#686,#687);
#608=AXIS2_PLACEMENT_3D('',#870,#688,#689);
#609=AXIS2_PLACEMENT_3D('',#875,#691,#692);
#610=AXIS2_PLACEMENT_3D('',#877,#693,#694);
#611=AXIS2_PLACEMENT_3D('',#881,#696,#697);
#612=AXIS2_PLACEMENT_3D('',#883,#698,#699);
#613=AXIS2_PLACEMENT_3D('',#889,#703,#704);
#614=AXIS2_PLACEMENT_3D('',#895,#708,#709);
#615=AXIS2_PLACEMENT_3D('',#901,#713,#714);
#616=AXIS2_PLACEMENT_3D('',#904,#716,#717);
#617=AXIS2_PLACEMENT_3D('',#909,#720,#721);
#618=AXIS2_PLACEMENT_3D('',#918,#726,#727);
#619=AXIS2_PLACEMENT_3D('',#928,#732,#733);
#620=AXIS2_PLACEMENT_3D('',#929,#734,#735);
#621=AXIS2_PLACEMENT_3D('',#938,#740,#741);
#622=AXIS2_PLACEMENT_3D('',#939,#742,#743);
#623=AXIS2_PLACEMENT_3D('',#940,#744,#745);
#624=AXIS2_PLACEMENT_3D('',#941,#746,#747);
#625=AXIS2_PLACEMENT_3D('',#942,#748,#749);
#626=AXIS2_PLACEMENT_3D('',#943,#750,#751);
#627=AXIS2_PLACEMENT_3D('',#944,#752,#753);
#628=AXIS2_PLACEMENT_3D('',#945,#754,#755);
#629=AXIS2_PLACEMENT_3D('',#946,#756,#757);
#630=AXIS2_PLACEMENT_3D('',#947,#758,#759);
#631=AXIS2_PLACEMENT_3D('',#948,#760,#761);
#632=AXIS2_PLACEMENT_3D('',#949,#762,#763);
#633=AXIS2_PLACEMENT_3D('',#950,#764,#765);
#634=AXIS2_PLACEMENT_3D('',#951,#766,#767);
#635=AXIS2_PLACEMENT_3D('',#952,#768,#769);
#636=AXIS2_PLACEMENT_3D('',#953,#770,#771);
#637=AXIS2_PLACEMENT_3D('',#957,#774,#775);
#638=AXIS2_PLACEMENT_3D('',#961,#777,#778);
#639=AXIS2_PLACEMENT_3D('',#963,#779,#780);
#640=AXIS2_PLACEMENT_3D('',#972,#785,#786);
#641=AXIS2_PLACEMENT_3D('',#974,#787,#788);
#642=AXIS2_PLACEMENT_3D('',#975,#789,#790);
#643=AXIS2_PLACEMENT_3D('',#977,#791,#792);
#644=AXIS2_PLACEMENT_3D('',#984,#796,#797);
#645=AXIS2_PLACEMENT_3D('',#990,#798,#799);
#646=AXIS2_PLACEMENT_3D('',#991,#800,#801);
#647=AXIS2_PLACEMENT_3D('',#997,#802,#803);
#648=AXIS2_PLACEMENT_3D('',#998,#804,#805);
#649=AXIS2_PLACEMENT_3D('',#999,#806,#807);
#650=AXIS2_PLACEMENT_3D('',#1000,#808,#809);
#651=AXIS2_PLACEMENT_3D('',#1001,#810,#811);
#652=AXIS2_PLACEMENT_3D('',#1002,#812,#813);
#653=AXIS2_PLACEMENT_3D('',#1003,#814,#815);
#654=AXIS2_PLACEMENT_3D('',#1019,#816,#817);
#655=AXIS2_PLACEMENT_3D('',#1020,#818,#819);
#656=AXIS2_PLACEMENT_3D('',#1021,#820,#821);
#657=AXIS2_PLACEMENT_3D('',#1037,#822,#823);
#658=AXIS2_PLACEMENT_3D('',#1038,#824,#825);
#659=AXIS2_PLACEMENT_3D('',#1040,#827,#828);
#660=AXIS2_PLACEMENT_3D('',#1043,#831,#832);
#661=AXIS2_PLACEMENT_3D('',#1045,#834,#835);
#662=AXIS2_PLACEMENT_3D('',#1046,#836,#837);
#663=AXIS2_PLACEMENT_3D('',#1048,#839,#840);
#664=AXIS2_PLACEMENT_3D('',#1049,#841,#842);
#665=DIRECTION('',(0.,0.,1.));
#666=DIRECTION('',(1.,0.,0.));
#667=DIRECTION('',(0.,-1.,0.));
#668=DIRECTION('',(1.,0.,0.));
#669=DIRECTION('',(1.,0.,0.));
#670=DIRECTION('',(0.,0.,-1.));
#671=DIRECTION('',(-1.,0.,0.));
#672=DIRECTION('',(0.,-1.,0.));
#673=DIRECTION('',(-1.,0.,0.));
#674=DIRECTION('',(1.,0.,0.));
#675=DIRECTION('',(0.,-1.,0.));
#676=DIRECTION('',(0.,0.,-1.));
#677=DIRECTION('',(0.,0.,1.));
#678=DIRECTION('',(0.,-1.,0.));
#679=DIRECTION('',(0.,0.,-1.));
#680=DIRECTION('',(-1.,0.,0.));
#681=DIRECTION('',(0.,-1.,0.));
#682=DIRECTION('',(0.,0.,-1.));
#683=DIRECTION('',(-0.707106781186548,0.,0.707106781186547));
#684=DIRECTION('',(0.,-1.,0.));
#685=DIRECTION('',(0.,0.,-1.));
#686=DIRECTION('',(0.,0.,-1.));
#687=DIRECTION('',(-1.,0.,0.));
#688=DIRECTION('',(0.,0.,-1.));
#689=DIRECTION('',(-1.,0.,0.));
#690=DIRECTION('',(1.,0.,0.));
#691=DIRECTION('',(0.,0.,-1.));
#692=DIRECTION('',(-1.,0.,0.));
#693=DIRECTION('',(0.,0.,-1.));
#694=DIRECTION('',(-1.,0.,0.));
#695=DIRECTION('',(1.,0.,0.));
#696=DIRECTION('',(0.,0.,-1.));
#697=DIRECTION('',(-1.,0.,0.));
#698=DIRECTION('',(0.,0.,-1.));
#699=DIRECTION('',(-1.,0.,0.));
#700=DIRECTION('',(0.,-1.,0.));
#701=DIRECTION('',(1.,0.,0.));
#702=DIRECTION('',(0.,-1.,0.));
#703=DIRECTION('',(-0.707106781186548,0.,-0.707106781186548));
#704=DIRECTION('',(-0.707106781186548,0.,0.707106781186548));
#705=DIRECTION('',(0.,-1.,0.));
#706=DIRECTION('',(-0.707106781186548,0.,0.707106781186547));
#707=DIRECTION('',(0.,-1.,0.));
#708=DIRECTION('',(0.,0.,1.));
#709=DIRECTION('',(1.,0.,0.));
#710=DIRECTION('',(0.,-1.,0.));
#711=DIRECTION('',(0.,-1.,0.));
#712=DIRECTION('',(-1.,0.,0.));
#713=DIRECTION('',(1.,0.,0.));
#714=DIRECTION('',(0.,0.,-1.));
#715=DIRECTION('',(0.,-1.,0.));
#716=DIRECTION('',(1.,0.,0.));
#717=DIRECTION('',(0.,-1.,0.));
#718=DIRECTION('',(0.,0.,1.));
#719=DIRECTION('',(0.,-1.,0.));
#720=DIRECTION('',(0.707106781186547,0.,-0.707106781186548));
#721=DIRECTION('',(-0.707106781186548,0.,-0.707106781186547));
#722=DIRECTION('',(0.707106781186548,0.,0.707106781186547));
#723=DIRECTION('',(0.,-1.,0.));
#724=DIRECTION('',(0.707106781186548,0.,0.707106781186547));
#725=DIRECTION('',(0.,-1.,0.));
#726=DIRECTION('',(1.,0.,0.));
#727=DIRECTION('',(0.,0.,-1.));
#728=DIRECTION('',(0.,-1.,0.));
#729=DIRECTION('',(0.,0.,1.));
#730=DIRECTION('',(0.,-1.,0.));
#731=DIRECTION('',(0.,0.,1.));
#732=DIRECTION('',(1.,0.,0.));
#733=DIRECTION('',(0.,1.,0.));
#734=DIRECTION('',(0.,0.,1.));
#735=DIRECTION('',(1.,0.,0.));
#736=DIRECTION('',(0.,-1.,0.));
#737=DIRECTION('',(-1.,0.,0.));
#738=DIRECTION('',(0.,-1.,0.));
#739=DIRECTION('',(-1.,0.,0.));
#740=DIRECTION('',(0.,1.,0.));
#741=DIRECTION('',(0.,0.,1.));
#742=DIRECTION('',(0.,-1.,0.));
#743=DIRECTION('',(0.,0.,-1.));
#744=DIRECTION('',(0.,1.,0.));
#745=DIRECTION('',(0.,0.,1.));
#746=DIRECTION('',(0.,-1.,0.));
#747=DIRECTION('',(0.,0.,-1.));
#748=DIRECTION('',(0.,-1.,0.));
#749=DIRECTION('',(0.,0.,-1.));
#750=DIRECTION('',(0.,1.,0.));
#751=DIRECTION('',(0.,0.,1.));
#752=DIRECTION('',(0.,-1.,0.));
#753=DIRECTION('',(0.,0.,-1.));
#754=DIRECTION('',(0.,-1.,0.));
#755=DIRECTION('',(0.,0.,-1.));
#756=DIRECTION('',(0.,1.,0.));
#757=DIRECTION('',(0.,0.,1.));
#758=DIRECTION('',(0.,-1.,0.));
#759=DIRECTION('',(0.,0.,-1.));
#760=DIRECTION('',(0.,-1.,0.));
#761=DIRECTION('',(0.,0.,-1.));
#762=DIRECTION('',(0.,-1.,0.));
#763=DIRECTION('',(0.,0.,-1.));
#764=DIRECTION('',(0.,-1.,0.));
#765=DIRECTION('',(0.,0.,-1.));
#766=DIRECTION('',(0.,1.,0.));
#767=DIRECTION('',(0.,0.,1.));
#768=DIRECTION('',(0.,-1.,0.));
#769=DIRECTION('',(0.,0.,-1.));
#770=DIRECTION('',(0.,0.,1.));
#771=DIRECTION('',(1.,0.,0.));
#772=DIRECTION('',(0.,-1.,0.));
#773=DIRECTION('',(-0.171829025486581,-0.985126786764187,0.));
#774=DIRECTION('',(0.,0.,1.));
#775=DIRECTION('',(1.,0.,0.));
#776=DIRECTION('',(1.,0.,0.));
#777=DIRECTION('',(0.,0.,1.));
#778=DIRECTION('',(1.,0.,0.));
#779=DIRECTION('',(0.,0.,1.));
#780=DIRECTION('',(1.,0.,0.));
#781=DIRECTION('',(-1.,0.,0.));
#782=DIRECTION('',(-0.171829025486581,0.985126786764187,0.));
#783=DIRECTION('',(-1.,0.,0.));
#784=DIRECTION('',(-0.171829025486581,-0.985126786764187,0.));
#785=DIRECTION('',(0.,0.,1.));
#786=DIRECTION('',(1.,0.,0.));
#787=DIRECTION('',(0.,0.,1.));
#788=DIRECTION('',(1.,0.,0.));
#789=DIRECTION('',(0.,0.,1.));
#790=DIRECTION('',(1.,0.,0.));
#791=DIRECTION('',(0.,0.,-1.));
#792=DIRECTION('',(-1.,0.,0.));
#793=DIRECTION('',(-1.,0.,0.));
#794=DIRECTION('',(0.,-1.,0.));
#795=DIRECTION('',(-0.171829025486581,0.985126786764187,0.));
#796=DIRECTION('',(0.,-1.,0.));
#797=DIRECTION('',(1.,0.,0.));
#798=DIRECTION('',(0.,-1.,0.));
#799=DIRECTION('',(1.,0.,0.));
#800=DIRECTION('',(0.,-1.,0.));
#801=DIRECTION('',(-1.,0.,0.));
#802=DIRECTION('',(-0.171829025486581,-0.985126786764187,0.));
#803=DIRECTION('',(0.985126786764187,-0.171829025486581,0.));
#804=DIRECTION('',(-0.998621493656739,0.052489164660761,0.));
#805=DIRECTION('',(-0.052489164660761,-0.998621493656739,0.));
#806=DIRECTION('',(-0.171829025486581,0.985126786764187,0.));
#807=DIRECTION('',(-0.985126786764187,-0.171829025486581,0.));
#808=DIRECTION('',(0.,-1.,0.));
#809=DIRECTION('',(-1.,0.,0.));
#810=DIRECTION('',(-0.998621493656739,-0.052489164660761,0.));
#811=DIRECTION('',(-0.052489164660761,0.998621493656739,0.));
#812=DIRECTION('',(0.,-1.,0.));
#813=DIRECTION('',(0.,0.,-1.));
#814=DIRECTION('',(0.,-1.,0.));
#815=DIRECTION('',(0.,0.,-1.));
#816=DIRECTION('',(0.,-1.,0.));
#817=DIRECTION('',(0.,0.,-1.));
#818=DIRECTION('',(0.,-1.,0.));
#819=DIRECTION('',(0.,0.,-1.));
#820=DIRECTION('',(0.,-1.,0.));
#821=DIRECTION('',(0.,0.,-1.));
#822=DIRECTION('',(0.,0.,1.));
#823=DIRECTION('',(-1.,0.,0.));
#824=DIRECTION('',(0.,-1.,0.));
#825=DIRECTION('',(1.,0.,0.));
#826=DIRECTION('',(0.,0.,-1.));
#827=DIRECTION('',(0.,1.,0.));
#828=DIRECTION('',(-1.,0.,0.));
#829=DIRECTION('',(0.,0.,-1.));
#830=DIRECTION('',(0.,0.,-1.));
#831=DIRECTION('',(0.,0.,-1.));
#832=DIRECTION('',(-1.,0.,0.));
#833=DIRECTION('',(0.,0.,-1.));
#834=DIRECTION('',(0.,0.,-1.));
#835=DIRECTION('',(-1.,0.,0.));
#836=DIRECTION('',(0.,0.,1.));
#837=DIRECTION('',(1.,0.,0.));
#838=DIRECTION('',(0.,0.,-1.));
#839=DIRECTION('',(0.,0.,1.));
#840=DIRECTION('',(1.,0.,0.));
#841=DIRECTION('',(0.,0.,1.));
#842=DIRECTION('',(1.,0.,0.));
#843=CARTESIAN_POINT('',(0.,0.,0.));
#844=CARTESIAN_POINT('',(3.46944695195361E-18,-0.0647453981166406,-0.005875));
#845=CARTESIAN_POINT('',(-1.7347234759768E-18,-0.0647453981166406,-0.0096));
#846=CARTESIAN_POINT('',(0.00764811986352452,-0.0647453981166406,-0.0096));
#847=CARTESIAN_POINT('',(0.0132428932188134,-0.0647453981166406,-0.0096));
#848=CARTESIAN_POINT('',(0.00764811986352452,-0.0647453981166406,-0.00785));
#849=CARTESIAN_POINT('',(0.00764811986352452,-0.0647453981166406,-0.00785));
#850=CARTESIAN_POINT('',(3.46944695195361E-18,-0.0647453981166406,-0.00785));
#851=CARTESIAN_POINT('',(0.00664811986352452,-0.0647453981166406,-0.00785));
#852=CARTESIAN_POINT('',(0.00664811986352452,-0.0647453981166406,-0.00695));
#853=CARTESIAN_POINT('',(0.00664811986352452,-0.0647453981166406,-0.00605));
#854=CARTESIAN_POINT('',(0.007,-0.0647453981166406,-0.00605));
#855=CARTESIAN_POINT('',(0.0064,-0.0647453981166406,-0.00605));
#856=CARTESIAN_POINT('',(0.0064,-0.0647453981166406,-0.00565));
#857=CARTESIAN_POINT('',(0.006,-0.0647453981166406,-0.00565));
#858=CARTESIAN_POINT('',(0.006,-0.0647453981166406,-0.0056));
#859=CARTESIAN_POINT('',(0.006,-0.0647453981166406,-0.00555));
#860=CARTESIAN_POINT('',(0.0064,-0.0647453981166406,-0.00555));
#861=CARTESIAN_POINT('',(0.0064,-0.0647453981166406,-0.00515));
#862=CARTESIAN_POINT('',(3.46944695195361E-18,-0.0647453981166406,-0.00515));
#863=CARTESIAN_POINT('',(0.00979289321881345,-0.0647453981166406,-0.00515));
#864=CARTESIAN_POINT('',(0.00979289321881345,-0.0647453981166406,-0.00565));
#865=CARTESIAN_POINT('',(0.0101464466094067,-0.0647453981166406,-0.00529644660940673));
#866=CARTESIAN_POINT('',(0.0166,-0.0647453981166406,-0.01175));
#867=CARTESIAN_POINT('',(0.0135964466094067,-0.0647453981166406,-0.00874644660940673));
#868=CARTESIAN_POINT('',(0.0132428932188134,-0.0647453981166406,-0.0091));
#869=CARTESIAN_POINT('',(-1.7347234759768E-18,-0.0619656203388628,-0.0096));
#870=CARTESIAN_POINT('',(0.,-0.0662453981166406,-0.0096));
#871=CARTESIAN_POINT('',(-0.00125,-0.0662453981166406,-0.0096));
#872=CARTESIAN_POINT('',(-1.7347234759768E-18,-0.0647453981166406,-0.0096));
#873=CARTESIAN_POINT('',(-0.0132428932188134,-0.0647453981166406,-0.0096));
#874=CARTESIAN_POINT('',(-0.00764811986352453,-0.0647453981166406,-0.0096));
#875=CARTESIAN_POINT('',(-0.00764811986352453,-0.0637453981166406,-0.0096));
#876=CARTESIAN_POINT('',(-0.00664811986352453,-0.0637453981166406,-0.0096));
#877=CARTESIAN_POINT('',(-0.00564811986352453,-0.0637453981166406,-0.0096));
#878=CARTESIAN_POINT('',(-0.00564811986352453,-0.0627453981166406,-0.0096));
#879=CARTESIAN_POINT('',(-1.7347234759768E-18,-0.0627453981166406,-0.0096));
#880=CARTESIAN_POINT('',(0.00564811986352452,-0.0627453981166406,-0.0096));
#881=CARTESIAN_POINT('',(0.00564811986352452,-0.0637453981166406,-0.0096));
#882=CARTESIAN_POINT('',(0.00664811986352452,-0.0637453981166406,-0.0096));
#883=CARTESIAN_POINT('',(0.00764811986352452,-0.0637453981166406,-0.0096));
#884=CARTESIAN_POINT('',(0.0132428932188134,-0.0712453981166406,-0.0096));
#885=CARTESIAN_POINT('',(0.0132428932188134,-0.0712453981166406,-0.0096));
#886=CARTESIAN_POINT('',(-1.7347234759768E-18,-0.0712453981166406,-0.0096));
#887=CARTESIAN_POINT('',(-0.0132428932188134,-0.0712453981166406,-0.0096));
#888=CARTESIAN_POINT('',(-0.0132428932188134,-0.0626268795981221,-0.0096));
#889=CARTESIAN_POINT('',(0.0166,-0.0619656203388628,-0.01175));
#890=CARTESIAN_POINT('',(0.0101464466094067,-0.0712453981166406,-0.00529644660940673));
#891=CARTESIAN_POINT('',(0.0101464466094067,-0.0712453981166406,-0.00529644660940673));
#892=CARTESIAN_POINT('',(0.0166,-0.0712453981166406,-0.01175));
#893=CARTESIAN_POINT('',(0.0135964466094067,-0.0712453981166406,-0.00874644660940673));
#894=CARTESIAN_POINT('',(0.0135964466094067,-0.0626268795981221,-0.00874644660940673));
#895=CARTESIAN_POINT('',(3.46944695195361E-18,-0.0619656203388628,-0.00515));
#896=CARTESIAN_POINT('',(0.00979289321881345,-0.0619676203388628,-0.00515));
#897=CARTESIAN_POINT('',(0.00979289321881345,-0.0712453981166406,-0.00515));
#898=CARTESIAN_POINT('',(0.0064,-0.0712453981166406,-0.00515));
#899=CARTESIAN_POINT('',(0.0064,-0.0712453981166406,-0.00515));
#900=CARTESIAN_POINT('',(3.46944695195361E-18,-0.0712453981166406,-0.00515));
#901=CARTESIAN_POINT('',(0.006,-0.0619656203388628,-0.0056));
#902=CARTESIAN_POINT('',(0.006,-0.0619656203388628,-0.00565));
#903=CARTESIAN_POINT('',(0.006,-0.0661679140343915,-0.00565));
#904=CARTESIAN_POINT('',(0.006,-0.0661679140343915,-0.00695));
#905=CARTESIAN_POINT('',(0.006,-0.0712453981166406,-0.0059862494897897));
#906=CARTESIAN_POINT('',(0.006,-0.0712453981166406,-0.0056));
#907=CARTESIAN_POINT('',(0.006,-0.0712453981166406,-0.00555));
#908=CARTESIAN_POINT('',(0.006,-0.0619676203388628,-0.00555));
#909=CARTESIAN_POINT('',(-0.01,-0.0619656203388628,-0.00515));
#910=CARTESIAN_POINT('',(-0.01,-0.0647453981166406,-0.00515));
#911=CARTESIAN_POINT('',(-0.0135964466094067,-0.0647453981166406,-0.00874644660940673));
#912=CARTESIAN_POINT('',(-0.0101464466094067,-0.0647453981166406,-0.00529644660940673));
#913=CARTESIAN_POINT('',(-0.0135964466094067,-0.0712453981166406,-0.00874644660940673));
#914=CARTESIAN_POINT('',(-0.0135964466094067,-0.0712453981166406,-0.00874644660940673));
#915=CARTESIAN_POINT('',(-0.01,-0.0712453981166406,-0.00515));
#916=CARTESIAN_POINT('',(-0.0101464466094067,-0.0712453981166406,-0.00529644660940673));
#917=CARTESIAN_POINT('',(-0.0101464466094067,-0.0619676203388628,-0.00529644660940673));
#918=CARTESIAN_POINT('',(-0.006,-0.0619656203388628,-0.0056));
#919=CARTESIAN_POINT('',(-0.006,-0.0619656203388628,-0.00565));
#920=CARTESIAN_POINT('',(-0.006,-0.0661679140343915,-0.00565));
#921=CARTESIAN_POINT('',(-0.006,-0.0647453981166406,-0.00565));
#922=CARTESIAN_POINT('',(-0.006,-0.0647453981166406,-0.0056));
#923=CARTESIAN_POINT('',(-0.006,-0.0647453981166406,-0.00555));
#924=CARTESIAN_POINT('',(-0.006,-0.0619656203388628,-0.00555));
#925=CARTESIAN_POINT('',(-0.006,-0.0712453981166406,-0.00555));
#926=CARTESIAN_POINT('',(-0.006,-0.0712453981166406,-0.0056));
#927=CARTESIAN_POINT('',(-0.006,-0.0712453981166406,-0.00598624948978969));
#928=CARTESIAN_POINT('',(-0.006,-0.0661679140343915,-0.00695));
#929=CARTESIAN_POINT('',(3.46944695195361E-18,-0.0619656203388628,-0.00515));
#930=CARTESIAN_POINT('',(-0.0064,-0.0619656203388628,-0.00515));
#931=CARTESIAN_POINT('',(-0.0064,-0.0712453981166406,-0.00515));
#932=CARTESIAN_POINT('',(-0.0064,-0.0647453981166406,-0.00515));
#933=CARTESIAN_POINT('',(3.46944695195361E-18,-0.0647453981166406,-0.00515));
#934=CARTESIAN_POINT('',(-0.00979289321881345,-0.0647453981166406,-0.00515));
#935=CARTESIAN_POINT('',(-0.00979289321881345,-0.0712453981166406,-0.00515));
#936=CARTESIAN_POINT('',(-0.00979289321881345,-0.0712453981166406,-0.00515));
#937=CARTESIAN_POINT('',(3.46944695195361E-18,-0.0712453981166406,-0.00515));
#938=CARTESIAN_POINT('',(0.00979289321881345,-0.0619656203388628,-0.00565));
#939=CARTESIAN_POINT('',(0.00979289321881345,-0.0712453981166406,-0.00565));
#940=CARTESIAN_POINT('',(-0.00979289321881345,-0.0619656203388628,-0.00565));
#941=CARTESIAN_POINT('',(-0.00979289321881345,-0.0647453981166406,-0.00565));
#942=CARTESIAN_POINT('',(-0.00979289321881345,-0.0712453981166406,-0.00565));
#943=CARTESIAN_POINT('',(-0.0132428932188134,-0.0619656203388628,-0.0091));
#944=CARTESIAN_POINT('',(-0.0132428932188134,-0.0647453981166406,-0.0091));
#945=CARTESIAN_POINT('',(-0.0132428932188134,-0.0712453981166406,-0.0091));
#946=CARTESIAN_POINT('',(0.0132428932188134,-0.0619656203388628,-0.0091));
#947=CARTESIAN_POINT('',(0.0132428932188134,-0.0712453981166406,-0.0091));
#948=CARTESIAN_POINT('',(-0.0064,-0.0619656203388628,-0.00555));
#949=CARTESIAN_POINT('',(-0.0064,-0.0647453981166406,-0.00555));
#950=CARTESIAN_POINT('',(-0.0064,-0.0712453981166406,-0.00555));
#951=CARTESIAN_POINT('',(0.0064,-0.0619656203388628,-0.00555));
#952=CARTESIAN_POINT('',(0.0064,-0.0712453981166406,-0.00555));
#953=CARTESIAN_POINT('',(0.007,-0.0619656203388628,-0.00605));
#954=CARTESIAN_POINT('',(0.0064,-0.0619656203388628,-0.00605));
#955=CARTESIAN_POINT('',(0.0064,-0.0661679140343915,-0.00605));
#956=CARTESIAN_POINT('',(0.00712905156813663,-0.0619881299340625,-0.00605));
#957=CARTESIAN_POINT('',(0.004,-0.0619656203388628,-0.00785));
#958=CARTESIAN_POINT('',(0.004,-0.0627453981166406,-0.00785));
#959=CARTESIAN_POINT('',(-0.00564811986352453,-0.0627453981166406,-0.00785));
#960=CARTESIAN_POINT('',(0.00564811986352452,-0.0627453981166406,-0.00785));
#961=CARTESIAN_POINT('',(-0.00564811986352453,-0.0637453981166406,-0.00785));
#962=CARTESIAN_POINT('',(-0.00664811986352453,-0.0637453981166406,-0.00785));
#963=CARTESIAN_POINT('',(-0.00764811986352453,-0.0637453981166406,-0.00785));
#964=CARTESIAN_POINT('',(-0.00764811986352453,-0.0647453981166406,-0.00785));
#965=CARTESIAN_POINT('',(3.46944695195361E-18,-0.0647453981166406,-0.00785));
#966=CARTESIAN_POINT('',(-0.00664811986352453,-0.0647453981166406,-0.00785));
#967=CARTESIAN_POINT('',(-0.00680427421414028,-0.0638501370673171,-0.00785));
#968=CARTESIAN_POINT('',(-0.00551436867467361,-0.0712453981166406,-0.00785));
#969=CARTESIAN_POINT('',(0.004,-0.0712453981166406,-0.00785));
#970=CARTESIAN_POINT('',(0.00551436867467361,-0.0712453981166406,-0.00785));
#971=CARTESIAN_POINT('',(0.00709052888508463,-0.0622089874222842,-0.00785));
#972=CARTESIAN_POINT('',(0.00764811986352452,-0.0637453981166406,-0.00785));
#973=CARTESIAN_POINT('',(0.00664811986352452,-0.0637453981166406,-0.00785));
#974=CARTESIAN_POINT('',(0.00564811986352452,-0.0637453981166406,-0.00785));
#975=CARTESIAN_POINT('',(0.,-0.0662453981166406,-0.00785));
#976=CARTESIAN_POINT('',(0.00140310516117037,-0.0662453981166406,-0.00785));
#977=CARTESIAN_POINT('',(-0.007,-0.0619656203388628,-0.00605));
#978=CARTESIAN_POINT('',(-0.007,-0.0647453981166406,-0.00605));
#979=CARTESIAN_POINT('',(-0.0064,-0.0647453981166406,-0.00605));
#980=CARTESIAN_POINT('',(-0.00664811986352453,-0.0647453981166406,-0.00605));
#981=CARTESIAN_POINT('',(-0.0064,-0.0619656203388628,-0.00605));
#982=CARTESIAN_POINT('',(-0.0064,-0.0661679140343915,-0.00605));
#983=CARTESIAN_POINT('',(-0.00712905156813663,-0.0619881299340625,-0.00605));
#984=CARTESIAN_POINT('',(3.46944695195361E-18,-0.0712453981166406,-0.005875));
#985=CARTESIAN_POINT('',(0.006,-0.0712453981166406,-0.0059862494897897));
#986=CARTESIAN_POINT('',(0.006,-0.0712453981166406,-0.00610031066695145));
#987=CARTESIAN_POINT('',(0.00604861460414347,-0.0712453981166406,-0.00621120961337422));
#988=CARTESIAN_POINT('',(0.00613311920507571,-0.0712453981166406,-0.00628784323999559));
#989=CARTESIAN_POINT('',(0.00613311920507573,-0.0712453981166406,-0.00628784323999558));
#990=CARTESIAN_POINT('',(0.00551436867467361,-0.0712453981166406,-0.00695));
#991=CARTESIAN_POINT('',(-0.00551436867467361,-0.0712453981166406,-0.00695));
#992=CARTESIAN_POINT('',(-0.00613311920507573,-0.0712453981166406,-0.00628784323999557));
#993=CARTESIAN_POINT('',(-0.00613311920507573,-0.0712453981166406,-0.00628784323999557));
#994=CARTESIAN_POINT('',(-0.00604862376867186,-0.0712453981166406,-0.00621121792429499));
#995=CARTESIAN_POINT('',(-0.006,-0.0712453981166406,-0.00610029413574678));
#996=CARTESIAN_POINT('',(-0.006,-0.0712453981166406,-0.0059862494897897));
#997=CARTESIAN_POINT('',(0.00712905156813663,-0.0619881299340625,-0.00695));
#998=CARTESIAN_POINT('',(0.0064,-0.0661679140343915,-0.00695));
#999=CARTESIAN_POINT('',(-0.00707736317808182,-0.0622844687945287,-0.00695));
#1000=CARTESIAN_POINT('',(-0.00664811986352453,-0.0647453981166406,-0.00695));
#1001=CARTESIAN_POINT('',(-0.0064,-0.0661679140343915,-0.00695));
#1002=CARTESIAN_POINT('',(0.0064,-0.0619656203388628,-0.00565));
#1003=CARTESIAN_POINT('',(0.0064,-0.0661679140343915,-0.00565));
#1004=CARTESIAN_POINT('',(0.0064,-0.0661679140343915,-0.00605));
#1005=CARTESIAN_POINT('',(0.006,-0.0661679140343915,-0.00605));
#1006=CARTESIAN_POINT('',(0.006,-0.0661679140343915,-0.00565));
#1007=CARTESIAN_POINT('',(0.00634844011390219,-0.067148855735402,-0.00605));
#1008=CARTESIAN_POINT('',(0.00599999999999927,-0.0670894620984479,-0.00600156193877859));
#1009=CARTESIAN_POINT('',(0.006,-0.067157848978807,-0.00564999999999957));
#1010=CARTESIAN_POINT('',(0.00624555028952459,-0.0691063643221037,-0.00609807755259244));
#1011=CARTESIAN_POINT('',(0.00600000000000004,-0.06900061885531,-0.00597947560917386));
#1012=CARTESIAN_POINT('',(0.006,-0.0691333039440892,-0.00571944535441745));
#1013=CARTESIAN_POINT('',(0.00616469053224895,-0.0706447444967906,-0.00622091127023775));
#1014=CARTESIAN_POINT('',(0.00600000000000054,-0.0706440960681071,-0.00609765735464405));
#1015=CARTESIAN_POINT('',(0.006,-0.0706857879412159,-0.00589687183344268));
#1016=CARTESIAN_POINT('',(0.00613194423042947,-0.0712677523481062,-0.00629032371557035));
#1017=CARTESIAN_POINT('',(0.006,-0.0712865127439779,-0.00617268215053628));
#1018=CARTESIAN_POINT('',(0.006,-0.0713145075092491,-0.00599713425582384));
#1019=CARTESIAN_POINT('',(-0.0064,-0.0619656203388628,-0.00565));
#1020=CARTESIAN_POINT('',(-0.0064,-0.0647453981166406,-0.00565));
#1021=CARTESIAN_POINT('',(-0.0064,-0.0661679140343915,-0.00565));
#1022=CARTESIAN_POINT('',(-0.00613194423042947,-0.0712677523481061,-0.00629032371557035));
#1023=CARTESIAN_POINT('',(-0.006,-0.0712865127439779,-0.00617268215053627));
#1024=CARTESIAN_POINT('',(-0.006,-0.0713145075092491,-0.00599713425582383));
#1025=CARTESIAN_POINT('',(-0.00616469053225006,-0.0706447444967949,-0.00622091127023945));
#1026=CARTESIAN_POINT('',(-0.00600000000000075,-0.0706440960681319,-0.00609765735464557));
#1027=CARTESIAN_POINT('',(-0.006,-0.0706857879412203,-0.00589687183344323));
#1028=CARTESIAN_POINT('',(-0.00624555028952195,-0.069106364322114,-0.00609807755259159));
#1029=CARTESIAN_POINT('',(-0.00600000000000076,-0.0690006188552982,-0.00597947560917119));
#1030=CARTESIAN_POINT('',(-0.006,-0.0691333039440995,-0.00571944535441717));
#1031=CARTESIAN_POINT('',(-0.00634844011390636,-0.0671488557353767,-0.00605));
#1032=CARTESIAN_POINT('',(-0.00599999999999743,-0.0670894620984368,-0.00600156193878292));
#1033=CARTESIAN_POINT('',(-0.006,-0.0671578489787817,-0.00564999999999957));
#1034=CARTESIAN_POINT('',(-0.0064,-0.0661679140343915,-0.00605));
#1035=CARTESIAN_POINT('',(-0.006,-0.0661679140343915,-0.00605));
#1036=CARTESIAN_POINT('',(-0.006,-0.0661679140343915,-0.00565));
#1037=CARTESIAN_POINT('',(0.,-0.0662453981166406,-0.0096));
#1038=CARTESIAN_POINT('',(3.46944695195361E-18,-0.0647453981166406,-0.005875));
#1039=CARTESIAN_POINT('',(-0.00764811986352453,-0.0647453981166406,-0.005875));
#1040=CARTESIAN_POINT('',(-3.46944695195361E-18,-0.0627453981166406,-0.007375));
#1041=CARTESIAN_POINT('',(-0.00564811986352453,-0.0627453981166406,-0.007375));
#1042=CARTESIAN_POINT('',(0.00564811986352452,-0.0627453981166406,-0.0096));
#1043=CARTESIAN_POINT('',(-0.00764811986352453,-0.0637453981166406,-0.005875));
#1044=CARTESIAN_POINT('',(-0.00664811986352453,-0.0637453981166406,-0.008725));
#1045=CARTESIAN_POINT('',(-0.00564811986352453,-0.0637453981166406,-0.008725));
#1046=CARTESIAN_POINT('',(0.00764811986352452,-0.0637453981166406,-0.008725));
#1047=CARTESIAN_POINT('',(0.00664811986352452,-0.0637453981166406,-0.0096));
#1048=CARTESIAN_POINT('',(0.00564811986352452,-0.0637453981166406,-0.007375));
#1049=CARTESIAN_POINT('',(0.,0.,0.));
#1050=MECHANICAL_DESIGN_GEOMETRIC_PRESENTATION_REPRESENTATION('',(#587),
#1051);
#1051=(
GEOMETRIC_REPRESENTATION_CONTEXT(3)
GLOBAL_UNCERTAINTY_ASSIGNED_CONTEXT((#1053))
GLOBAL_UNIT_ASSIGNED_CONTEXT((#1057,#1056,#1055))
REPRESENTATION_CONTEXT('DINClip','TOP_LEVEL_ASSEMBLY_PART')
);
#1052=(
GEOMETRIC_REPRESENTATION_CONTEXT(3)
GLOBAL_UNCERTAINTY_ASSIGNED_CONTEXT((#1054))
GLOBAL_UNIT_ASSIGNED_CONTEXT((#1057,#1056,#1055))
REPRESENTATION_CONTEXT('DINClip','COMPONENT_PART')
);
#1053=UNCERTAINTY_MEASURE_WITH_UNIT(LENGTH_MEASURE(1.E-8),#1057,
'DISTANCE_ACCURACY_VALUE','Maximum Tolerance applied to model');
#1054=UNCERTAINTY_MEASURE_WITH_UNIT(LENGTH_MEASURE(2.E-5),#1057,
'DISTANCE_ACCURACY_VALUE','Maximum Tolerance applied to model');
#1055=(
NAMED_UNIT(*)
SI_UNIT($,.STERADIAN.)
SOLID_ANGLE_UNIT()
);
#1056=(
NAMED_UNIT(*)
PLANE_ANGLE_UNIT()
SI_UNIT($,.RADIAN.)
);
#1057=(
LENGTH_UNIT()
NAMED_UNIT(*)
SI_UNIT($,.METRE.)
);
#1058=PRODUCT_DEFINITION_SHAPE('','',#1061);
#1059=PRODUCT_DEFINITION_SHAPE('','',#1062);
#1060=PRODUCT_DEFINITION_SHAPE(' ','NAUO PRDDFN',#11);
#1061=PRODUCT_DEFINITION('','',#1065,#1063);
#1062=PRODUCT_DEFINITION('','',#1066,#1064);
#1063=PRODUCT_DEFINITION_CONTEXT('',#1076,'design');
#1064=PRODUCT_DEFINITION_CONTEXT('',#1076,'design');
#1065=PRODUCT_DEFINITION_FORMATION_WITH_SPECIFIED_SOURCE('','',#1069,
 .NOT_KNOWN.);
#1066=PRODUCT_DEFINITION_FORMATION_WITH_SPECIFIED_SOURCE('','',#1070,
 .NOT_KNOWN.);
#1067=PRODUCT_RELATED_PRODUCT_CATEGORY('','',(#1069));
#1068=PRODUCT_RELATED_PRODUCT_CATEGORY('','',(#1070));
#1069=PRODUCT('DINClip','DINClip','DINClip',(#1073));
#1070=PRODUCT('DINClip','DINClip','DINClip',(#1074));
#1071=PRODUCT_CATEGORY('','');
#1072=PRODUCT_CATEGORY('','');
#1073=PRODUCT_CONTEXT('',#1076,'mechanical');
#1074=PRODUCT_CONTEXT('',#1076,'mechanical');
#1075=APPLICATION_PROTOCOL_DEFINITION('international standard',
'ap242_managed_model_based_3d_engineering',2020,#1076);
#1076=APPLICATION_CONTEXT('managed model based 3d engineering');
ENDSEC;
END-ISO-10303-21;
